<svg xmlns="http://www.w3.org/2000/svg" viewBox="0 0 200 200" width="200" height="200">
  <defs>
    <linearGradient id="grad1" x1="0%" y1="0%" x2="100%" y2="100%">
      <stop offset="0%" style="stop-color:#1e40af;stop-opacity:1" />
      <stop offset="100%" style="stop-color:#059669;stop-opacity:1" />
    </linearGradient>
  </defs>

  <!-- Background circle -->
  <circle cx="100" cy="100" r="95" fill="url(#grad1)" />

  <!-- Dog paw (left) -->
  <g transform="translate(55, 80)">
    <!-- Main pad -->
    <ellipse cx="0" cy="15" rx="18" ry="22" fill="white" opacity="0.95" />
    <!-- Toe 1 -->
    <ellipse cx="-12" cy="-5" rx="8" ry="12" fill="white" opacity="0.95" />
    <!-- Toe 2 -->
    <ellipse cx="-3" cy="-8" rx="8" ry="12" fill="white" opacity="0.95" />
    <!-- Toe 3 -->
    <ellipse cx="6" cy="-8" rx="8" ry="12" fill="white" opacity="0.95" />
    <!-- Toe 4 -->
    <ellipse cx="13" cy="-5" rx="8" ry="12" fill="white" opacity="0.95" />
  </g>

  <!-- Cat paw (right) -->
  <g transform="translate(145, 120)">
    <!-- Main pad -->
    <ellipse cx="0" cy="12" rx="15" ry="18" fill="white" opacity="0.95" />
    <!-- Toe 1 -->
    <ellipse cx="-10" cy="-3" rx="6" ry="10" fill="white" opacity="0.95" />
    <!-- Toe 2 -->
    <ellipse cx="-2" cy="-6" rx="6" ry="10" fill="white" opacity="0.95" />
    <!-- Toe 3 -->
    <ellipse cx="6" cy="-6" rx="6" ry="10" fill="white" opacity="0.95" />
    <!-- Toe 4 -->
    <ellipse cx="12" cy="-2" rx="6" ry="10" fill="white" opacity="0.95" />
  </g>

  <!-- Location pin icon in center -->
  <g transform="translate(100, 100)">
    <path d="M 0,-25 C -10,-25 -18,-17 -18,-7 C -18,3 0,25 0,25 C 0,25 18,3 18,-7 C 18,-17 10,-25 0,-25 Z"
          fill="white" opacity="0.9" stroke="rgba(255,255,255,0.5)" stroke-width="2"/>
    <circle cx="0" cy="-7" r="5" fill="#1e40af"/>
  </g>
</svg>
